<svg viewBox="-3.47 98.1 215.75 40.25" xmlns="http://www.w3.org/2000/svg" xmlns:svg="http://www.w3.org/2000/svg">
	<path stroke="black" stroke-width="2" fill="none" d="m 177.06562,552.48881 q -14.2,0 -24.6,-5.2 -10.4,-5.4 -16.2,-15 -5.6,-9.8 -5.6,-23 v -63.6 q 0,-13.2 5.6,-22.8 5.8,-9.8 16.2,-15 10.4,-5.4 24.6,-5.4 14,0 24.4,5.4 10.40001,5.2 16.2,15 5.8,9.6 5.8,22.8 h -25.2 q 0,-10.2 -5.6,-15.6 -5.4,-5.6 -15.6,-5.6 -10.2,0 -15.8,5.4 -5.6,5.4 -5.6,15.6 v 63.8 q 0,10.2 5.6,15.8 5.6,5.6 15.8,5.6 10.2,0 15.6,-5.6 5.6,-5.6 5.6,-15.8 v -16.2 h -24.8 v -21.6 h 50 v 37.8 q 0,13.2 -5.8,23 -5.79999,9.6 -16.2,15 -10.4,5.2 -24.4,5.2 z m 119.3997,0 q -14,0 -24.4,-5.4 -10.4,-5.4 -16.2,-15.2 -5.6,-10 -5.6,-23.4 v -26 q 0,-13.4 5.6,-23.2 5.8,-10 16.2,-15.4 10.4,-5.4 24.4,-5.4 13.8,0 24,5.4 10.4,5.4 16,15.2 5.8,9.6 5.8,22.6 v 20 h -68 v 7.6 q 0,11.2 5.8,17 5.8,5.6 16.4,5.6 7.8,0 13.2,-2.6 5.6,-2.8 6.6,-8 h 24.8 q -2.6,14.2 -14.8,22.8 -12.2,8.4 -29.8,8.4 z m -22.2,-70.8 v 3.8 l 44,-0.2 v -3.8 q 0,-11.4 -5.6,-17.6 -5.6,-6.2 -16.2,-6.2 -11,0 -16.6,6.4 -5.6,6.2 -5.6,17.6 z m 141.99969,70.6 q -21.2,0 -33.6,-11.8 -12.4,-12 -12.4,-32.2 v -25.6 q 0,-20.4 12.4,-32.2 12.4,-11.8 33.6,-11.8 21.2,0 33.6,11.8 12.4,11.8 12.4,32.2 v 25.6 q 0,20.2 -12.4,32.2 -12.4,11.8 -33.6,11.8 z m 0,-21.8 q 10,0 15.4,-5.4 5.6,-5.6 5.6,-16 v -27.2 q 0,-10.4 -5.6,-15.8 -5.4,-5.6 -15.4,-5.6 -10,0 -15.6,5.6 -5.4,5.4 -5.4,15.8 v 27.2 q 0,10.4 5.4,16 5.6,5.4 15.6,5.4 z m 109.9997,22 q -16,0 -26,-11.4 -9.8,-11.4 -9.8,-30.6 v -29.8 q 0,-19.4 9.8,-30.8 9.8,-11.4 26,-11.4 11.4,0 19.2,5.8 8,5.8 11.2,16.2 l -0.8,-25.2 v -30.8 h 25 v 146 h -24.4 v -20 q -3,10.4 -10.8,16.2 -7.8,5.8 -19.4,5.8 z m 9.4,-21.6 q 9.6,0 14.8,-5.8 5.4,-5.8 5.4,-16.4 v -26.4 q 0,-10.6 -5.4,-16.4 -5.2,-5.8 -14.8,-5.8 -9.6,0 -15,5.2 -5.2,5.2 -5.2,16 v 28.4 q 0,10.8 5.2,16 5.4,5.2 15,5.2 z m 120.79969,21.6 q -14,0 -24.4,-5.4 -10.4,-5.4 -16.2,-15.2 -5.6,-10 -5.6,-23.4 v -26 q 0,-13.4 5.6,-23.2 5.8,-10 16.2,-15.4 10.4,-5.4 24.4,-5.4 13.8,0 24,5.4 10.4,5.4 16,15.2 5.8,9.6 5.8,22.6 v 20 h -68 v 7.6 q 0,11.2 5.8,17 5.8,5.6 16.4,5.6 7.8,0 13.2,-2.6 5.6,-2.8 6.6,-8 h 24.8 q -2.6,14.2 -14.8,22.8 -12.2,8.4 -29.8,8.4 z m -22.2,-70.8 v 3.8 l 44,-0.2 v -3.8 q 0,-11.4 -5.6,-17.6 -5.6,-6.2 -16.2,-6.2 -11,0 -16.6,6.4 -5.6,6.2 -5.6,17.6 z m 158.3997,68.8 v -29 h -64.6 v -36.2 l 54,-80.8 h 27.8 l -57.8,87.4 v 7.6 h 40.6 v -33 h 25.2 v 84 z m 58.39969,0 v -22.6 l 52.6,-53.8 q 12.8,-13.4 12.8,-27.2 0,-9.8 -5.8,-15.8 -5.6,-6.2 -15.2,-6.2 -9.8,0 -15.8,6.4 -5.8,6.2 -5.8,16.6 h -25 q 0,-13.6 6,-23.8 6,-10.2 16.6,-15.8 10.6,-5.8 24.6,-5.8 13.8,0 24.2,5.4 10.4,5.4 16,15.2 5.8,9.6 5.8,22.6 0,11.2 -5.4,22.4 -5.2,11.2 -17.4,23.2 l -36.8,36.6 h 61.4 v 22.6 z" transform="matrix(0.26458333,0,0,0.26458333,-37.720099,-8.0567201)" />
</svg>